<svg xmlns="http://www.w3.org/2000/svg" width="84.00" height="84.00" viewBox="0 0 84.00 84.00"><g transform="matrix(1 0 0 1 0.0 0.0)"><rect x="0" y="0" width="84" height="84" rx="10" fill="rgb(203,213,255)" stroke="none" stroke-width="0"/></g><g transform="matrix(1 0 0 1 10.0 10.0)"><path d="M 27 11 L 27 16.5 C 27 17.04999923706055 27.45000076293945 17.5 28 17.5 L 36 17.5 C 36.54999923706055 17.5 37 17.04999923706055 37 16.5 L 37 11 C 37 9.380000114440918 35.88000106811523 8.020000457763672 34.38000106811523 7.630000114440918 C 35.21000289916992 6.940000057220459 35.75 5.920000076293945 35.75 4.75 C 35.75 2.680000066757202 34.06999969482422 1 32 1 C 29.93000030517578 1 28.25 2.679999828338623 28.25 4.75 C 28.25 5.909999847412109 28.79000091552734 6.940000057220459 29.6200008392334 7.630000114440918 C 28.1200008392334 8.020000457763672 27 9.380000114440918 27 11 Z M 32 3 C 32.95999908447266 3 33.75 3.789999961853027 33.75 4.75 C 33.75 5.710000038146973 32.95999908447266 6.5 32 6.5 C 31.04000091552734 6.5 30.25 5.710000038146973 30.25 4.75 C 30.25 3.789999961853027 31.04000091552734 3 32 3 Z M 29 11 C 29 10.17000007629395 29.67000007629395 9.5 30.5 9.5 L 33.5 9.5 C 34.33000183105469 9.5 35 10.17000007629395 35 11 L 35 15.5 L 29 15.5 L 29 11 Z" fill="rgb(71,74,89)" stroke="none" stroke-width="0"/></g><g transform="matrix(1 0 0 1 10.0 10.0)"><path d="M 37 53 L 37 47.5 C 37 46.95000076293945 36.54999923706055 46.5 36 46.5 L 28 46.5 C 27.45000076293945 46.5 27 46.95000076293945 27 47.5 L 27 53 C 27 54.61999893188477 28.1200008392334 55.97999954223633 29.61999893188477 56.36999893188477 C 28.78999900817871 57.05999755859375 28.24999809265137 58.07999801635742 28.24999809265137 59.25 C 28.24999809265137 61.31999969482422 29.92999839782715 63 31.99999809265137 63 C 34.06999969482422 63 35.75 61.31999969482422 35.75 59.25 C 35.75 58.09000015258789 35.20999908447266 57.06000137329102 34.38000106811523 56.36999893188477 C 35.88000106811523 55.97999954223633 37 54.61999893188477 37 53 Z M 32 61 C 31.04000091552734 61 30.25 60.20999908447266 30.25 59.25 C 30.25 58.29000091552734 31.04000091552734 57.5 32 57.5 C 32.95999908447266 57.5 33.75 58.29000091552734 33.75 59.25 C 33.75 60.20999908447266 32.95999908447266 61 32 61 Z M 35 53 C 35 53.83000183105469 34.33000183105469 54.5 33.5 54.5 L 30.5 54.5 C 29.67000007629395 54.5 29 53.83000183105469 29 53 L 29 48.5 L 35 48.5 L 35 53 Z" fill="rgb(71,74,89)" stroke="none" stroke-width="0"/></g><g transform="matrix(1 0 0 1 10.0 10.0)"><path d="M 59.25 28.25 C 58.09000015258789 28.25 57.06000137329102 28.79000091552734 56.36999893188477 29.6200008392334 C 55.97999954223633 28.1200008392334 54.61999893188477 27 53 27 L 47.5 27 C 46.95000076293945 27 46.5 27.45000076293945 46.5 28 L 46.5 36 C 46.5 36.54999923706055 46.95000076293945 37 47.5 37 L 53 37 C 54.61999893188477 37 55.97999954223633 35.88000106811523 56.36999893188477 34.38000106811523 C 57.05999755859375 35.21000289916992 58.07999801635742 35.75 59.25 35.75 C 61.31999969482422 35.75 63 34.06999969482422 63 32 C 63 29.93000030517578 61.31999969482422 28.25 59.25 28.25 Z M 54.5 33.5 C 54.5 34.33000183105469 53.83000183105469 35 53 35 L 48.5 35 L 48.5 29 L 53 29 C 53.83000183105469 29 54.5 29.67000007629395 54.5 30.5 L 54.5 33.5 Z M 59.25 33.75 C 58.29000091552734 33.75 57.5 32.95999908447266 57.5 32 C 57.5 31.04000091552734 58.29000091552734 30.25 59.25 30.25 C 60.20999908447266 30.25 61 31.04000091552734 61 32 C 61 32.95999908447266 60.20999908447266 33.75 59.25 33.75 Z" fill="rgb(71,74,89)" stroke="none" stroke-width="0"/></g><g transform="matrix(1 0 0 1 10.0 10.0)"><path d="M 4.75 35.75 C 5.909999847412109 35.75 6.940000057220459 35.20999908447266 7.630000114440918 34.38000106811523 C 8.020000457763672 35.88000106811523 9.380000114440918 37 11 37 L 16.5 37 C 17.04999923706055 37 17.5 36.54999923706055 17.5 36 L 17.5 28 C 17.5 27.45000076293945 17.04999923706055 27 16.5 27 L 11 27 C 9.380000114440918 27 8.020000457763672 28.1200008392334 7.630000114440918 29.61999893188477 C 6.940000057220459 28.78999900817871 5.920000076293945 28.24999809265137 4.75 28.24999809265137 C 2.680000066757202 28.24999809265137 1 29.92999839782715 1 31.99999809265137 C 1 34.06999969482422 2.679999828338623 35.75 4.75 35.75 Z M 9.5 30.5 C 9.5 29.67000007629395 10.17000007629395 29 11 29 L 15.5 29 L 15.5 35 L 11 35 C 10.17000007629395 35 9.5 34.33000183105469 9.5 33.5 L 9.5 30.5 Z M 4.75 30.25 C 5.710000038146973 30.25 6.5 31.04000091552734 6.5 32 C 6.5 32.95999908447266 5.710000038146973 33.75 4.75 33.75 C 3.789999961853027 33.75 3 32.95999908447266 3 32 C 3 31.04000091552734 3.789999961853027 30.25 4.75 30.25 Z" fill="rgb(71,74,89)" stroke="none" stroke-width="0"/></g><g transform="matrix(1 0 0 1 10.0 10.0)"><path d="M 38.65999984741211 40.7400016784668 C 39.45000076293945 40.1400032043457 40.15000152587891 39.44000244140625 40.75 38.65000152587891 C 40.95000076293945 38.3900032043457 41.0099983215332 38.05000305175781 40.90999984741211 37.7400016784668 L 40.56000137329102 36.65000152587891 C 40.8900032043457 36.04000091552734 41.15999984741211 35.40000152587891 41.35000228881836 34.7400016784668 L 42.36000061035156 34.22000122070312 C 42.65000152587891 34.06999969482422 42.85000228881836 33.79000091552734 42.88999938964844 33.46000289916992 C 42.95999908447266 32.91000366210938 43 32.44000244140625 43 31.99000358581543 C 43 31.54000473022461 42.97000122070312 31.07000350952148 42.88999938964844 30.52000427246094 C 42.84999847412109 30.20000457763672 42.64999771118164 29.91000366210938 42.36000061035156 29.7600040435791 L 41.35000228881836 29.24000358581543 C 41.16000366210938 28.58000373840332 40.8900032043457 27.94000434875488 40.56000137329102 27.33000373840332 L 40.90999984741211 26.24000358581543 C 41.0099983215332 25.93000411987305 40.95000076293945 25.59000396728516 40.75 25.33000373840332 C 40.15000152587891 24.54000282287598 39.45000076293945 23.84000396728516 38.65999984741211 23.24000358581543 C 38.40000152587891 23.04000282287598 38.06000137329102 22.98000335693359 37.75 23.08000373840332 L 36.65999984741211 23.43000411987305 C 36.04999923706055 23.10000419616699 35.40999984741211 22.83000373840332 34.75 22.6400032043457 L 34.22999954223633 21.63000297546387 C 34.07999801635742 21.34000205993652 33.79999923706055 21.1400032043457 33.47000122070312 21.10000228881836 C 32.36000061035156 20.95000267028809 31.63000106811523 20.95000267028809 30.52000045776367 21.10000228881836 C 30.20000076293945 21.1400032043457 29.90999984741211 21.34000205993652 29.76000022888184 21.63000297546387 L 29.23999977111816 22.6400032043457 C 28.57999992370605 22.83000373840332 27.94000053405762 23.10000228881836 27.32999992370605 23.43000411987305 L 26.23999977111816 23.08000373840332 C 25.93000030517578 22.98000335693359 25.59000015258789 23.04000282287598 25.32999992370605 23.24000358581543 C 24.53999900817871 23.84000396728516 23.84000015258789 24.54000282287598 23.23999977111816 25.33000373840332 C 23.03999900817871 25.59000396728516 22.97999954223633 25.93000411987305 23.07999992370605 26.24000358581543 L 23.43000030517578 27.33000373840332 C 23.10000038146973 27.94000434875488 22.82999992370605 28.58000373840332 22.63999938964844 29.24000358581543 L 21.6299991607666 29.7600040435791 C 21.33999824523926 29.91000366210938 21.13999938964844 30.19000434875488 21.09999847412109 30.52000427246094 C 21.02999877929688 31.07000350952148 20.98999786376953 31.54000473022461 20.98999786376953 31.99000358581543 C 20.98999786376953 32.44000244140625 21.01999855041504 32.91000366210938 21.09999847412109 33.46000289916992 C 21.13999938964844 33.78000259399414 21.33999824523926 34.07000350952148 21.6299991607666 34.22000122070312 L 22.63999938964844 34.7400016784668 C 22.82999992370605 35.40000152587891 23.09999847412109 36.04000091552734 23.43000030517578 36.65000152587891 L 23.07999992370605 37.7400016784668 C 22.97999954223633 38.05000305175781 23.03999900817871 38.3900032043457 23.23999977111816 38.65000152587891 C 23.84000015258789 39.44000244140625 24.53999900817871 40.1400032043457 25.32999992370605 40.7400016784668 C 25.59000015258789 40.94000244140625 25.93000030517578 41 26.23999977111816 40.90000152587891 L 27.32999992370605 40.55000305175781 C 27.94000053405762 40.8800048828125 28.57999992370605 41.15000152587891 29.23999977111816 41.34000396728516 L 29.76000022888184 42.35000228881836 C 29.90999984741211 42.6400032043457 30.19000053405762 42.84000396728516 30.52000045776367 42.88000106811523 C 31.06999969482422 42.95000076293945 31.54000091552734 42.9900016784668 31.98999977111816 42.9900016784668 C 32.43999862670898 42.9900016784668 32.90999984741211 42.96000289916992 33.45999908447266 42.88000106811523 C 33.77999877929688 42.84000015258789 34.06999969482422 42.63999938964844 34.21999740600586 42.35000228881836 L 34.73999786376953 41.34000396728516 C 35.39999771118164 41.15000534057617 36.03999710083008 40.8800048828125 36.64999771118164 40.55000305175781 L 37.73999786376953 40.90000152587891 C 38.04999923706055 41 38.38999938964844 40.94000244140625 38.64999771118164 40.7400016784668 Z M 36.02999877929688 38.61000061035156 C 35.34999847412109 39.02999877929688 34.61000061035156 39.33000183105469 33.84000015258789 39.52000045776367 C 33.56000137329102 39.59000015258789 33.31999969482422 39.77999877929688 33.18999862670898 40.02999877929688 L 32.70999908447266 40.95999908447266 C 32.20999908447266 41 31.81999969482422 41 31.31999969482422 40.95999908447266 L 30.84000015258789 40.02999877929688 C 30.71000099182129 39.77000045776367 30.46999931335449 39.57999801635742 30.19000053405762 39.52000045776367 C 29.42000007629395 39.33000183105469 28.68000030517578 39.02999877929688 28 38.61000061035156 C 27.75 38.45999908447266 27.45000076293945 38.42000198364258 27.17000007629395 38.51000213623047 L 26.18000030517578 38.83000183105469 C 25.82999992370605 38.53000259399414 25.48999977111816 38.20000076293945 25.19000053405762 37.84000015258789 L 25.51000022888184 36.84999847412109 C 25.60000038146973 36.56999969482422 25.55999946594238 36.26999664306641 25.40999984741211 36.01999664306641 C 24.98999977111816 35.33999633789062 24.69000053405762 34.59999847412109 24.5 33.82999801635742 C 24.43000030517578 33.54999923706055 24.23999977111816 33.30999755859375 23.98999977111816 33.17999649047852 L 23.05999946594238 32.69999694824219 C 23.03999900817871 32.44999694824219 23.02999877929688 32.21999740600586 23.02999877929688 31.99999618530273 C 23.02999877929688 31.77999496459961 23.03999900817871 31.54999542236328 23.05999946594238 31.29999542236328 L 23.98999977111816 30.81999588012695 C 24.25 30.68999671936035 24.44000053405762 30.44999504089355 24.5 30.16999626159668 C 24.69000053405762 29.39999580383301 24.98999977111816 28.65999603271484 25.40999984741211 27.97999572753906 C 25.55999946594238 27.72999572753906 25.60000038146973 27.42999649047852 25.51000022888184 27.14999580383301 L 25.19000053405762 26.15999603271484 C 25.48999977111816 25.80999565124512 25.81999969482422 25.46999549865723 26.18000030517578 25.16999626159668 L 27.17000007629395 25.4899959564209 C 27.44000053405762 25.57999610900879 27.75 25.53999519348145 28 25.38999557495117 C 28.68000030517578 24.96999549865723 29.42000007629395 24.66999626159668 30.19000053405762 24.47999572753906 C 30.47000122070312 24.40999603271484 30.71000099182129 24.21999549865723 30.84000015258789 23.96999549865723 L 31.31999969482422 23.03999519348145 C 31.81999969482422 22.9999942779541 32.20999908447266 22.9999942779541 32.70999908447266 23.03999519348145 L 33.18999862670898 23.96999549865723 C 33.31999969482422 24.22999572753906 33.55999755859375 24.41999626159668 33.84000015258789 24.47999572753906 C 34.61000061035156 24.66999626159668 35.34999847412109 24.96999549865723 36.02999877929688 25.38999557495117 C 36.27999877929688 25.53999519348145 36.57999801635742 25.57999610900879 36.86000061035156 25.4899959564209 L 37.85000228881836 25.16999626159668 C 38.20000076293945 25.46999549865723 38.54000091552734 25.79999542236328 38.84000396728516 26.15999603271484 L 38.52000427246094 27.14999580383301 C 38.43000411987305 27.42999649047852 38.47000503540039 27.72999572753906 38.62000274658203 27.97999572753906 C 39.04000091552734 28.65999603271484 39.34000396728516 29.39999580383301 39.53000259399414 30.16999626159668 C 39.60000228881836 30.44999694824219 39.79000091552734 30.68999671936035 40.04000091552734 30.81999588012695 L 40.97000122070312 31.29999542236328 C 40.9900016784668 31.54999542236328 41 31.77999496459961 41 31.99999618530273 C 41 32.21999740600586 40.9900016784668 32.44999694824219 40.97000122070312 32.69999694824219 L 40.04000091552734 33.17999649047852 C 39.78000259399414 33.30999755859375 39.59000015258789 33.54999542236328 39.53000259399414 33.82999801635742 C 39.34000396728516 34.59999847412109 39.04000091552734 35.33999633789062 38.62000274658203 36.01999664306641 C 38.47000122070312 36.26999664306641 38.43000411987305 36.56999588012695 38.52000427246094 36.84999847412109 L 38.84000396728516 37.84000015258789 C 38.54000473022461 38.18999862670898 38.21000289916992 38.52999877929688 37.85000228881836 38.83000183105469 L 36.86000061035156 38.51000213623047 C 36.58000183105469 38.42000198364258 36.27999877929688 38.46000289916992 36.02999877929688 38.61000061035156 Z" fill="rgb(71,74,89)" stroke="none" stroke-width="0"/></g><g transform="matrix(1 0 0 1 10.0 10.0)"><path d="M 32 27 C 29.23999977111816 27 27 29.23999977111816 27 32 C 27 34.76000213623047 29.23999977111816 37 32 37 C 34.76000213623047 37 37 34.7599983215332 37 32 C 37 29.2400016784668 34.7599983215332 27 32 27 Z M 32 35 C 30.35000038146973 35 29 33.65000152587891 29 32 C 29 30.34999847412109 30.35000038146973 29 32 29 C 33.65000152587891 29 35 30.35000038146973 35 32 C 35 33.65000152587891 33.65000152587891 35 32 35 Z" fill="rgb(71,74,89)" stroke="none" stroke-width="0"/></g><g transform="matrix(1 0 0 1 10.0 10.0)"><path d="M 11 39 L 11 44 C 11 48.95999908447266 15.03999996185303 53 20 53 L 25 53 L 25 51 L 20 51 C 16.13999938964844 51 13 47.86000061035156 13 44 L 13 39 L 11 39 Z" fill="rgb(71,74,89)" stroke="none" stroke-width="0"/></g><g transform="matrix(1 0 0 1 10.0 10.0)"><path d="M 53 44 L 53 39 L 51 39 L 51 44 C 51 47.86000061035156 47.86000061035156 51 44 51 L 39 51 L 39 53 L 44 53 C 48.95999908447266 53 53 48.95999908447266 53 44 Z" fill="rgb(71,74,89)" stroke="none" stroke-width="0"/></g><g transform="matrix(1 0 0 1 10.0 10.0)"><path d="M 39 11 L 39 13 L 44 13 C 47.86000061035156 13 51 16.13999938964844 51 20 L 51 25 L 53 25 L 53 20 C 53 15.03999996185303 48.95999908447266 11 44 11 L 39 11 Z" fill="rgb(71,74,89)" stroke="none" stroke-width="0"/></g><g transform="matrix(1 0 0 1 10.0 10.0)"><path d="M 13 20 C 13 16.13999938964844 16.13999938964844 13 20 13 L 25 13 L 25 11 L 20 11 C 15.03999996185303 11 11 15.03999996185303 11 20 L 11 25 L 13 25 L 13 20 Z" fill="rgb(71,74,89)" stroke="none" stroke-width="0"/></g></svg>