<svg xmlns="http://www.w3.org/2000/svg" width="84.00" height="84.00" viewBox="0 0 84.00 84.00"><g transform="matrix(1 0 0 1 0.0 0.0)"><rect x="0" y="0" width="84" height="84" rx="10" fill="rgb(203,213,255)" stroke="none" stroke-width="0"/></g><g transform="matrix(1 0 0 1 -34.27981507778168 -276.54315078258514)"><path d="M 58.49243927001953 335.4520263671875 C 56.24880981445312 335.4520263671875 54.42999267578125 333.6331787109375 54.42999267578125 331.3896484375 L 54.42999267578125 330.2093200683594 C 54.42999267578125 327.9656982421875 56.24880981445312 326.14697265625 58.49234008789062 326.14697265625 C 60.73596954345703 326.14697265625 62.55467987060547 327.9657592773438 62.55467987060547 330.2093200683594 L 62.55467987060547 331.3896484375 C 62.55489349365234 333.6331787109375 60.73607635498047 335.4520263671875 58.49244689941406 335.4520263671875 Z" fill="rgb(209,161,132)" stroke="none" stroke-width="0"/></g><g transform="matrix(1 0 0 1 5.334038853645325 -353.07912051677704)"><path d="M 22.15460205078125 411.9879760742188 L 15.60256958007812 411.9879760742188 C 12.50833606719971 411.9879760742188 9.999996185302734 414.496337890625 9.999996185302734 417.590576171875 L 9.999996185302734 421.7451782226562 L 27.75717544555664 421.7451782226562 L 27.75717544555664 417.590576171875 C 27.75717544555664 414.496337890625 25.24883651733398 411.9879760742188 22.15460205078125 411.9879760742188 Z" fill="rgb(255,255,255)" stroke="none" stroke-width="0"/></g><g transform="matrix(1 0 0 1 -180.33752620220184 -276.54315078258514)"><path d="M 222.3074340820312 335.4520263671875 C 220.0638122558594 335.4520263671875 218.2449951171875 333.6331787109375 218.2449951171875 331.3896484375 L 218.2449951171875 330.2093200683594 C 218.2449951171875 327.9656982421875 220.0638122558594 326.14697265625 222.3073425292969 326.14697265625 C 224.5509643554688 326.14697265625 226.3696594238281 327.9657592773438 226.3696594238281 330.2093200683594 L 226.3696594238281 331.3896484375 C 226.3697814941406 333.6331787109375 224.5509643554688 335.4520263671875 222.3074340820312 335.4520263671875 Z" fill="rgb(138,168,189)" stroke="none" stroke-width="0"/></g><g transform="matrix(1 0 0 1 -140.72367560863495 -353.07912051677704)"><path d="M 185.9696044921875 411.9879760742188 L 179.4175720214844 411.9879760742188 C 176.3233337402344 411.9879760742188 173.8150024414062 414.496337890625 173.8150024414062 417.590576171875 L 173.8150024414062 421.7451782226562 L 191.5721893310547 421.7451782226562 L 191.5721893310547 417.590576171875 C 191.5721893310547 414.496337890625 189.0638427734375 411.9879760742188 185.9696044921875 411.9879760742188 Z" fill="rgb(255,255,255)" stroke="none" stroke-width="0"/></g><g transform="matrix(1 0 0 1 -326.39437186717987 -276.54315078258514)"><path d="M 386.1214599609375 335.4520263671875 C 383.8778076171875 335.4520263671875 382.0590209960938 333.6331787109375 382.0590209960938 331.3896484375 L 382.0590209960938 330.2093200683594 C 382.0590209960938 327.9656982421875 383.8778076171875 326.14697265625 386.121337890625 326.14697265625 C 388.364990234375 326.14697265625 390.1836853027344 327.9657592773438 390.1836853027344 330.2093200683594 L 390.1836853027344 331.3896484375 C 390.1838989257812 333.6331787109375 388.3651123046875 335.4520263671875 386.1214599609375 335.4520263671875 Z" fill="rgb(255,218,143)" stroke="none" stroke-width="0"/></g><g transform="matrix(1 0 0 1 -286.7804936170578 -353.07912051677704)"><path d="M 349.7836303710938 411.9879760742188 L 343.2315673828125 411.9879760742188 C 340.1373291015625 411.9879760742188 337.6289978027344 414.496337890625 337.6289978027344 417.590576171875 L 337.6289978027344 421.7451782226562 L 355.3861694335938 421.7451782226562 L 355.3861694335938 417.590576171875 C 355.3861694335938 414.496337890625 352.8778686523438 411.9879760742188 349.7836303710938 411.9879760742188 Z" fill="rgb(255,255,255)" stroke="none" stroke-width="0"/></g><g transform="matrix(1 0 0 1 -24.49984323978424 5.333983540534973)"><path d="M 71.72122192382812 27.05335235595703 L 71.72122192382812 21.20698928833008 L 69.38188171386719 21.20698928833008 C 69.08660125732422 20.01189804077148 68.61485290527344 18.88639831542969 67.99502563476562 17.86008071899414 L 69.64951324462891 16.20559501647949 L 65.51552581787109 12.07160377502441 L 63.86093139648438 13.72619819641113 C 62.83472442626953 13.1063756942749 61.709228515625 12.63462543487549 60.51402282714844 12.33934879302979 L 60.51402282714844 10.00000190734863 L 54.66777038574219 10.00000190734863 L 54.66777038574219 12.33934879302979 C 53.47267913818359 12.63462543487549 52.34717559814453 13.1063756942749 51.32085418701172 13.72619819641113 L 49.66637420654297 12.07160377502441 L 45.53260040283203 16.20559501647949 L 47.18719482421875 17.86008071899414 C 46.56736755371094 18.88628768920898 46.09561920166016 20.01179122924805 45.80034255981445 21.20698928833008 L 43.46099853515625 21.20698928833008 L 43.46099853515625 27.05335235595703 L 45.80034255981445 27.05335235595703 C 46.09561920166016 28.24844360351562 46.56736755371094 29.37394714355469 47.18719482421875 30.40026092529297 L 45.53260040283203 32.05474472045898 L 49.66658782958984 36.18873596191406 L 51.32107543945312 34.53414154052734 C 52.34728240966797 35.15396499633789 53.47278594970703 35.62571334838867 54.66798400878906 35.92099380493164 L 54.66798400878906 38.26033782958984 L 60.51423645019531 38.26033782958984 L 60.51423645019531 35.92099380493164 C 61.70933532714844 35.62571334838867 62.83483123779297 35.15396499633789 63.86114501953125 34.53414154052734 L 65.51573944091797 36.18873596191406 L 69.64972686767578 32.05474472045898 L 67.99524688720703 30.40026092529297 C 68.61506652832031 29.37405395507812 69.08670806884766 28.24855422973633 69.38209533691406 27.05334854125977 L 71.72122192382812 27.05335235595703 Z" fill="rgb(102,224,247)" stroke="none" stroke-width="0"/></g><g transform="matrix(1 0 0 1 26.86589539051056 23.238832592964172)"><circle cx="6.225322246551514" cy="6.225322246551514" r="6.225322246551514" fill="rgb(255,255,255)" stroke="none" stroke-width="0"/></g><g transform="matrix(1 0 0 1 -183.12917029857635 -87.04575270414352)"><path d="M 245.1499633789062 113.6110076904297 L 237.8706970214844 113.6110076904297 L 224.2757873535156 113.6110076904297 C 222.67431640625 113.6110076904297 221.3760375976562 114.909294128418 221.3760375976562 116.5107727050781 C 221.3760375976562 118.1122512817383 222.67431640625 119.4105377197266 224.2757873535156 119.4105377197266 L 234.463623046875 119.4105377197266 L 234.463623046875 126.5215835571289 L 251.7952270507812 126.5215835571289 L 251.7952270507812 120.2563705444336 C 251.7952270507812 116.5862121582031 248.8200073242188 113.6110076904297 245.1499633789062 113.6110076904297 Z" fill="rgb(255,218,143)" stroke="none" stroke-width="0"/></g><g transform="matrix(1 0 0 1 -307.081377863884 3.735340893268585)"><path d="M 365.2164306640625 22.82991409301758 C 362.5552368164062 22.82991409301758 360.3980102539062 20.67267799377441 360.3980102539062 18.01149749755859 L 360.3980102539062 16.61142349243164 C 360.3980102539062 13.95024108886719 362.5552368164062 11.79300308227539 365.2164306640625 11.79300308227539 C 367.8775939941406 11.79300308227539 370.0348510742188 13.95024013519287 370.0348510742188 16.61142349243164 L 370.0348510742188 18.01149749755859 C 370.0348510742188 20.67256927490234 367.8775939941406 22.82991409301758 365.2164306640625 22.82991409301758 Z" fill="rgb(255,208,199)" stroke="none" stroke-width="0"/></g><g transform="matrix(1 0 0 1 14.25 -267.6245412826538)"><path d="M 49.62799453735352 325.5083618164062 C 50.25313186645508 324.6563110351562 50.62341690063477 323.6062622070312 50.62341690063477 322.4709167480469 L 50.62341690063477 321.2904663085938 C 50.62341690063477 318.4526977539062 48.31475067138672 316.14404296875 45.47698974609375 316.14404296875 C 42.63922500610352 316.14404296875 40.3305549621582 318.4526977539062 40.3305549621582 321.2904663085938 L 40.3305549621582 322.4709167480469 C 40.3305549621582 323.6062622070312 40.70084381103516 324.6563110351562 41.32598114013672 325.5083618164062 C 39.34857940673828 325.76806640625 37.64141082763672 326.8941040039062 36.59829330444336 328.49267578125 C 35.55517578125 326.8941040039062 33.847900390625 325.76806640625 31.87060546875 325.5083618164062 C 32.4957389831543 324.6563110351562 32.86602783203125 323.6062622070312 32.86602783203125 322.4709167480469 L 32.86602783203125 321.2904663085938 C 32.86602783203125 318.4526977539062 30.55735969543457 316.14404296875 27.71959495544434 316.14404296875 C 24.88183403015137 316.14404296875 22.57316398620605 318.4526977539062 22.57316398620605 321.2904663085938 L 22.57316398620605 322.4709167480469 C 22.57316398620605 323.6062622070312 22.94345092773438 324.6563110351562 23.5685863494873 325.5083618164062 C 21.5911808013916 325.76806640625 19.8840160369873 326.8941040039062 18.84089851379395 328.49267578125 C 17.79778099060059 326.8941040039062 16.09050559997559 325.76806640625 14.11320877075195 325.5083618164062 C 14.73834228515625 324.6563110351562 15.10863208770752 323.6062622070312 15.10863208770752 322.4709167480469 L 15.10863208770752 321.2904663085938 C 15.10863208770752 318.4526977539062 12.79996204376221 316.14404296875 9.962199211120605 316.14404296875 C 7.124436378479004 316.14404296875 4.815766334533691 318.4526977539062 4.815766334533691 321.2904663085938 L 4.815766334533691 322.4709167480469 C 4.815766334533691 323.6062622070312 5.186055660247803 324.6563110351562 5.8111891746521 325.5083618164062 C 2.536906003952026 325.9385986328125 5.7220458984375e-05 328.7455444335938 5.7220458984375e-05 332.1359252929688 L 5.7220458984375e-05 336.29052734375 C 5.7220458984375e-05 336.8890991210938 0.4853570163249969 337.37451171875 1.084041595458984 337.37451171875 L 22.88589096069336 337.37451171875 C 23.48457527160645 337.37451171875 23.96987533569336 336.8890991210938 23.96987533569336 336.29052734375 C 23.96987533569336 335.6919555664062 23.48457527160645 335.20654296875 22.88589096069336 335.20654296875 L 19.92531585693359 335.20654296875 L 19.92531585693359 332.1359252929688 C 19.92531585693359 329.6444091796875 21.95236587524414 327.6172485351562 24.44401359558105 327.6172485351562 L 30.99604797363281 327.6172485351562 C 33.48757934570312 327.6172485351562 35.51463317871094 329.644287109375 35.51463317871094 332.1359252929688 L 35.51463317871094 335.20654296875 L 32.6418571472168 335.20654296875 C 32.04317092895508 335.20654296875 31.55787467956543 335.6919555664062 31.55787467956543 336.29052734375 C 31.55787467956543 336.8890991210938 32.04317092895508 337.37451171875 32.6418571472168 337.37451171875 L 54.35579299926758 337.37451171875 C 54.95448303222656 337.37451171875 55.43977737426758 336.8890991210938 55.43977737426758 336.29052734375 L 55.43977737426758 332.1359252929688 C 55.43967056274414 328.7455444335938 52.90282440185547 325.9384765625 49.62800216674805 325.5083618164062 Z M 6.984270572662354 321.2905578613281 C 6.984270572662354 319.6483154296875 8.320389747619629 318.3121032714844 9.962734222412109 318.3121032714844 C 11.60507869720459 318.3121032714844 12.94119834899902 319.6482238769531 12.94119834899902 321.2905578613281 L 12.94119834899902 322.4710083007812 C 12.94119834899902 324.1132507324219 11.60507869720459 325.4494018554688 9.962734222412109 325.4494018554688 C 8.320389747619629 325.4494018554688 6.984270572662354 324.1133728027344 6.984270572662354 322.4710083007812 L 6.984270572662354 321.2905578613281 Z M 2.168019771575928 332.1359252929688 C 2.168019771575928 329.6444091796875 4.195070266723633 327.6172485351562 6.68671703338623 327.6172485351562 L 13.23875141143799 327.6172485351562 C 15.73028945922852 327.6172485351562 17.7573413848877 329.644287109375 17.7573413848877 332.1359252929688 L 17.7573413848877 335.20654296875 L 2.168019771575928 335.20654296875 L 2.168019771575928 332.1359252929688 Z M 24.74145126342773 321.2905578613281 C 24.74145126342773 319.6483154296875 26.07756996154785 318.3121032714844 27.71991539001465 318.3121032714844 C 29.36225700378418 318.3121032714844 30.69837760925293 319.6482238769531 30.69837760925293 321.2905578613281 L 30.69837760925293 322.4710083007812 C 30.69837760925293 324.1132507324219 29.36226081848145 325.4494018554688 27.71991539001465 325.4494018554688 C 26.07756805419922 325.4494018554688 24.74145126342773 324.1133728027344 24.74145126342773 322.4710083007812 L 24.74145126342773 321.2905578613281 Z M 42.49873733520508 321.2905578613281 C 42.49873733520508 319.6483154296875 43.83485412597656 318.3121032714844 45.47720336914062 318.3121032714844 C 47.11954498291016 318.3121032714844 48.45566177368164 319.6482238769531 48.45566177368164 321.2905578613281 L 48.45566177368164 322.4710083007812 C 48.45566177368164 324.1132507324219 47.11954498291016 325.4494018554688 45.47720336914062 325.4494018554688 C 43.83485412597656 325.4494018554688 42.49873733520508 324.1133728027344 42.49873733520508 322.4710083007812 L 42.49873733520508 321.2905578613281 Z M 53.27169799804688 335.20654296875 L 37.68248748779297 335.20654296875 L 37.68248748779297 332.1359252929688 C 37.68248748779297 329.6444091796875 39.70954132080078 327.6172485351562 42.2011833190918 327.6172485351562 L 48.75321960449219 327.6172485351562 C 51.24475860595703 327.6172485351562 53.27180862426758 329.644287109375 53.27180862426758 332.1359252929688 L 53.27180862426758 335.20654296875 Z" fill="rgb(0,0,0)" stroke="none" stroke-width="0"/></g><g transform="matrix(1 0 0 1 -15.582952499389648 14.25)"><path d="M 78.26054382324219 11.26107978820801 C 79.10930633544922 10.23866653442383 79.62040710449219 8.926395416259766 79.62040710449219 7.496837139129639 L 79.62040710449219 6.096762657165527 C 79.62040710449219 2.84220814704895 76.97256469726562 0.1943595856428146 73.71800231933594 0.1943595856428146 C 70.46344757080078 0.1943595856428146 67.81560516357422 2.84220814704895 67.81560516357422 6.096762657165527 L 67.81560516357422 7.496837139129639 C 67.81560516357422 8.912519454956055 68.31694793701172 10.21308422088623 69.15095520019531 11.23116207122803 L 61.29196929931641 11.23116207122803 C 61.06378936767578 10.50716876983643 60.77425384521484 9.804637908935547 60.42467498779297 9.130509376525879 L 61.49922180175781 8.056063652038574 C 61.92251586914062 7.632768630981445 61.92251586914062 6.946389675140381 61.49922180175781 6.522985458374023 L 57.36534118652344 2.389102220535278 C 57.16209411621094 2.185855150222778 56.88632202148438 2.071603059768677 56.59885406494141 2.071603059768677 C 56.31138610839844 2.071603059768677 56.03562164306641 2.185855150222778 55.83237457275391 2.389102220535278 L 54.75791931152344 3.463656187057495 C 54.09127807617188 3.117973566055298 53.39698028564453 2.830283880233765 52.68144226074219 2.60318922996521 L 52.68144226074219 1.083985328674316 C 52.68144226074219 0.4854091703891754 52.19614410400391 9.5367431640625e-07 51.59745788574219 9.5367431640625e-07 L 45.75120544433594 9.5367431640625e-07 C 45.15252685546875 9.5367431640625e-07 44.66722106933594 0.4854091703891754 44.66722106933594 1.083985328674316 L 44.66722106933594 2.603297710418701 C 43.95157623291016 2.830392122268677 43.25739288330078 3.117973566055298 42.59074401855469 3.463764429092407 L 41.51629638671875 2.38921070098877 C 41.31304931640625 2.18596363067627 41.03728485107422 2.071711540222168 40.74980926513672 2.071711540222168 C 40.46234130859375 2.071711540222168 40.18657302856445 2.18596363067627 39.98332595825195 2.38921070098877 L 35.84922790527344 6.523094177246094 C 35.64598083496094 6.726449489593506 35.5317268371582 7.002106189727783 35.5317268371582 7.289578914642334 C 35.5317268371582 7.577051639556885 35.64598083496094 7.85270881652832 35.84922790527344 8.056063652038574 L 36.92378234863281 9.130509376525879 C 36.57809829711914 9.797267913818359 36.29029846191406 10.49155902862549 36.06331634521484 11.20698833465576 L 34.54400253295898 11.20698833465576 C 33.94531631469727 11.20698833465576 33.46001815795898 11.69239711761475 33.46001815795898 12.29097270965576 L 33.46001815795898 18.1373348236084 C 33.46001815795898 18.73591041564941 33.94531631469727 19.2213191986084 34.54400253295898 19.2213191986084 L 36.06320571899414 19.2213191986084 C 36.29029846191406 19.93696594238281 36.577880859375 20.63104057312012 36.92367172241211 21.29769134521484 L 35.84912109375 22.37213516235352 C 35.6458740234375 22.57549285888672 35.53162002563477 22.85114860534668 35.53162002563477 23.13862037658691 C 35.53162002563477 23.42609214782715 35.6458740234375 23.70175361633301 35.84912109375 23.90510559082031 L 39.98310852050781 28.03909683227539 C 40.18635559082031 28.24234390258789 40.46212387084961 28.35659408569336 40.74959564208984 28.35659408569336 C 41.03706359863281 28.35659408569336 41.31283569335938 28.24234390258789 41.51608276367188 28.03909683227539 L 42.59052658081055 26.96454238891602 C 43.25717926025391 27.31033515930176 43.95135498046875 27.5980224609375 44.66700744628906 27.82500839233398 L 44.66700744628906 29.34421539306641 C 44.66700744628906 29.94279098510742 45.15230560302734 30.42819976806641 45.75099182128906 30.42819976806641 L 51.59724426269531 30.42819976806641 C 52.19593048095703 30.42819976806641 52.68122863769531 29.94279098510742 52.68122863769531 29.34421539306641 L 52.68122863769531 27.82500839233398 C 53.39687347412109 27.59791374206543 54.09105682373047 27.31033515930176 54.75770568847656 26.96454048156738 L 55.8321533203125 28.03909683227539 C 56.035400390625 28.24234390258789 56.31116485595703 28.35659408569336 56.59864044189453 28.35659408569336 C 56.8861083984375 28.35659408569336 57.16188049316406 28.24234390258789 57.36512756347656 28.03909683227539 L 61.49911499023438 23.90510559082031 C 61.92240905761719 23.48180961608887 61.92240905761719 22.79543113708496 61.49911499023438 22.37202644348145 L 60.424560546875 21.29758262634277 C 60.77392578125 20.62399291992188 61.06324768066406 19.9221134185791 61.29142761230469 19.19855499267578 L 65.83321380615234 19.19855499267578 L 65.83321380615234 25.22561454772949 C 65.83321380615234 25.82419204711914 66.31850433349609 26.30959892272949 66.91719818115234 26.30959892272949 L 84.24901580810547 26.30959892272949 C 84.84770202636719 26.30959892272949 85.33300018310547 25.82419204711914 85.33300018310547 25.22561454772949 L 85.33300018310547 18.96040153503418 C 85.33300018310547 14.91995906829834 82.21600341796875 11.59581184387207 78.26054382324219 11.26107788085938 Z M 69.98356628417969 7.496837139129639 L 69.98356628417969 6.096762657165527 C 69.98356628417969 4.037626266479492 71.65886688232422 2.362328052520752 73.71800231933594 2.362328052520752 C 75.77713775634766 2.362328052520752 77.45243835449219 4.037626266479492 77.45243835449219 6.096762657165527 L 77.45243835449219 7.496837139129639 C 77.45243835449219 9.555973052978516 75.77713775634766 11.23116207122803 73.71800231933594 11.23116207122803 C 71.65886688232422 11.23116207122803 69.98356628417969 9.555973052978516 69.98356628417969 7.496837139129639 Z M 58.311767578125 22.25073051452637 L 59.19976806640625 23.13872909545898 L 56.59874725341797 25.73964309692383 L 55.71074676513672 24.85164260864258 C 55.35823822021484 24.49923896789551 54.81071472167969 24.43246459960938 54.38373565673828 24.69034385681152 C 53.43621826171875 25.26268768310547 52.41120147705078 25.6873950958252 51.33730316162109 25.9527530670166 C 50.85330200195312 26.07231521606445 50.51325988769531 26.50655937194824 50.51325988769531 27.00508308410645 L 50.51325988769531 28.26044464111328 L 46.83497619628906 28.26044464111328 L 46.83497619628906 27.00508308410645 C 46.83497619628906 26.50655937194824 46.49492645263672 26.07231521606445 46.01092529296875 25.95275115966797 C 44.93691253662109 25.68749809265137 43.91201019287109 25.26268768310547 42.96449661254883 24.69034385681152 C 42.53773498535156 24.43257141113281 41.99021148681641 24.4991283416748 41.63748168945312 24.85164070129395 L 40.74948501586914 25.7396411895752 L 38.148681640625 23.13872909545898 L 39.03678894042969 22.25072860717773 C 39.38930130004883 21.89810752868652 39.45596313476562 21.35058784484863 39.19819259643555 20.9238224029541 C 38.62584686279297 19.9763126373291 38.20114517211914 18.95129776000977 37.93578338623047 17.87739372253418 C 37.81622314453125 17.39339447021484 37.38197708129883 17.05334854125977 36.88345336914062 17.05334854125977 L 35.62798309326172 17.05334854125977 L 35.62798309326172 13.37495613098145 L 36.88334655761719 13.37495613098145 C 37.38186645507812 13.37495613098145 37.81611251831055 13.03491020202637 37.93567657470703 12.55091094970703 C 38.20103454589844 11.4772253036499 38.62574005126953 10.45220851898193 39.19808578491211 9.504481315612793 C 39.45585632324219 9.077608108520508 39.38919067382812 8.530197143554688 39.03667831420898 8.177577018737793 L 38.1485710144043 7.289577484130859 L 40.74959182739258 4.688665390014648 L 41.63759231567383 5.57666540145874 C 41.99010467529297 5.929176807403564 42.53773498535156 5.996059417724609 42.96449661254883 5.737962245941162 C 43.91201019287109 5.165835380554199 44.93702697753906 4.741022109985352 46.01103210449219 4.4755539894104 C 46.49503326416016 4.355882167816162 46.83496856689453 3.921746015548706 46.83496856689453 3.423221826553345 L 46.83496856689453 2.167967796325684 L 50.51325225830078 2.167967796325684 L 50.51325225830078 3.423330068588257 C 50.51325225830078 3.921854734420776 50.85330200195312 4.355990409851074 51.33718872070312 4.475662708282471 C 52.41109466552734 4.741021633148193 53.43611145019531 5.165727138519287 54.38372802734375 5.738070964813232 C 54.81060028076172 5.995733737945557 55.35801696777344 5.929176807403564 55.71063232421875 5.57666540145874 L 56.5986328125 4.688665390014648 L 59.19965362548828 7.289577484130859 L 58.31166076660156 8.177577018737793 C 57.95913696289062 8.530197143554688 57.89247131347656 9.077717781066895 58.15025329589844 9.504481315612793 C 58.4830322265625 10.05547142028809 58.76432800292969 10.63334274291992 58.9949951171875 11.23116016387939 L 56.72957611083984 11.23116016387939 C 56.12351989746094 11.23116016387939 55.54890441894531 11.3678503036499 55.03411865234375 11.61098766326904 C 53.75338745117188 9.352072715759277 51.33664703369141 7.90484619140625 48.67416381835938 7.90484619140625 C 44.64380645751953 7.90484619140625 41.36486053466797 11.18378925323486 41.36486053466797 15.21426010131836 C 41.36486053466797 19.2446231842041 44.64380645751953 22.5235652923584 48.67416381835938 22.5235652923584 C 51.33155059814453 22.5235652923584 53.75132751464844 21.07568740844727 55.03302764892578 18.81850814819336 C 55.54814910888672 19.06197166442871 56.12308502197266 19.19876861572266 56.72957611083984 19.19876861572266 L 58.99445343017578 19.19876861572266 C 58.76389312744141 19.79604339599609 58.48281097412109 20.37337493896484 58.15036010742188 20.9238224029541 C 57.89258575439453 21.3505859375 57.95913696289062 21.89810752868652 58.311767578125 22.2507266998291 Z M 53.35915374755859 17.33486175537109 C 52.53326416015625 19.15779685974121 50.70187377929688 20.35549163818359 48.67427825927734 20.35549163818359 C 45.83933258056641 20.35549163818359 43.53294372558594 18.04909706115723 43.53294372558594 15.21415424346924 C 43.53294372558594 12.37921142578125 45.83933258056641 10.07270812988281 48.67427825927734 10.07270812988281 C 50.70577239990234 10.07270812988281 52.53402709960938 11.26985931396484 53.35947418212891 13.09453105926514 C 52.97140502929688 13.7090425491333 52.74583435058594 14.43596172332764 52.74583435058594 15.2149133682251 C 52.74583435058594 15.99364757537842 52.97130584716797 16.720458984375 53.35915374755859 17.33486175537109 Z M 83.1650390625 24.14173889160156 L 80.11806488037109 24.14173889160156 L 80.11806488037109 19.69566917419434 C 80.11806488037109 19.09709358215332 79.63276672363281 18.61168479919434 79.03408050537109 18.61168479919434 C 78.43539428710938 18.61168479919434 77.95009613037109 19.09709358215332 77.95009613037109 19.69566917419434 L 77.95009613037109 24.14173889160156 L 68.00139617919922 24.14173889160156 L 68.00139617919922 18.11467742919922 C 68.00139617919922 17.51609992980957 67.51609802246094 17.03069305419922 66.91741180419922 17.03069305419922 L 56.72969055175781 17.03069305419922 C 55.72852325439453 17.03069305419922 54.91390991210938 16.21607971191406 54.91390991210938 15.21491146087646 C 54.91390991210938 14.21374416351318 55.72852325439453 13.39912891387939 56.72969055175781 13.39912891387939 L 77.60387420654297 13.39912891387939 C 80.67035675048828 13.39912891387939 83.16514587402344 15.89402770996094 83.16514587402344 18.96051025390625 L 83.16514587402344 24.14173889160156 Z" fill="rgb(0,0,0)" stroke="none" stroke-width="0"/></g><g transform="matrix(1 0 0 1 40.930158615112305 67.58203220367432)"><circle cx="1.083984375" cy="1.083984375" r="1.083984375" fill="rgb(0,0,0)" stroke="none" stroke-width="0"/></g></svg>