<svg xmlns="http://www.w3.org/2000/svg" width="128.00" height="128.00" viewBox="0 0 128.00 128.00"><g transform="matrix(1 0 0 1 0.0 0.248046875)"><path d="M 64 0 C 99.34622192382812 0 128 28.65377807617188 128 64 C 128 99.34622192382812 99.34622192382812 128 64 128 C 28.65377807617188 128 0 99.34622192382812 0 64 C 0 28.65377807617188 28.65377807617188 0 64 0 Z" fill="rgb(0,60,225)" stroke="none" stroke-width="0"/></g><g transform="matrix(1 0 0 1 24.0 24.248046875)"><rect x="0" y="0" width="79.1701889038086" height="80.1240463256836" rx="0" fill="none" stroke="none" stroke-width="0"/></g><g transform="matrix(1 0 0 1 32.15748476982117 49.61347982287407)"><rect x="0" y="0" width="10.470193862915039" height="5.235182285308838" rx="0" fill="rgb(203,213,255)" stroke="none" stroke-width="0"/></g><g transform="matrix(1 0 0 1 22.15172529220581 4.180607050657272)"><path d="M 10.00799942016602 59.83801651000977 L 20.47148513793945 59.83801651000977 L 15.23638343811035 66.38140106201172 L 10.00799942016602 59.83801651000977 Z" fill="rgb(203,213,255)" stroke="none" stroke-width="0"/></g><g transform="matrix(1 0 0 1 25.5861976146698 24.716709345579147)"><g transform="matrix(1 0 0 1 -8.905518531799316 -21.904253005981445)"><path d="M 25.94699668884277 74.28965759277344 C 25.94699668884277 80.06842041015625 30.63142585754395 84.75308990478516 36.41011047363281 84.75331878662109 C 42.18915176391602 84.75331878662109 46.87374114990234 80.06880187988281 46.87395095825195 74.29004669189453 C 46.87395095825195 68.51087951660156 42.18952560424805 63.82622528076172 36.41084289550781 63.82600402832031 C 30.63150978088379 63.82600402832031 25.9467887878418 68.51096343994141 25.94699668884277 74.2900390625 M 36.41383361816406 82.14356994628906 C 35.07942581176758 82.144287109375 33.76711654663086 81.80289459228516 32.60221099853516 81.15203857421875 L 37.04499816894531 75.60014343261719 L 44.15009689331055 75.60014343261719 C 43.50893020629883 79.37393188476562 40.24164962768555 82.13652038574219 36.41383361816406 82.14128875732422 Z M 44.15457534790039 72.98143768310547 L 37.72540283203125 72.98143768310547 L 37.72540283203125 66.55551147460938 C 41.01384735107422 67.11734771728516 43.58990097045898 69.69297790527344 44.1523323059082 72.98143005371094 Z M 35.11119842529297 66.55552673339844 L 35.11119842529297 73.8297119140625 L 30.56882667541504 79.50804138183594 C 28.66219329833984 77.38052368164062 28.06491851806641 74.38371276855469 29.01021194458008 71.687744140625 C 29.95549583435059 68.99179840087891 32.29345321655273 67.02423858642578 35.11119842529297 66.55328369140625" fill="rgb(203,213,255)" stroke="none" stroke-width="0"/></g><g transform="matrix(1 0 0 1 17.041475296020508 65.4688720703125)"><rect x="0" y="0" width="2.6175484657287598" height="2.617591142654419" rx="0" fill="rgb(203,213,255)" stroke="none" stroke-width="0"/></g><g transform="matrix(1 0 0 1 22.277694702148438 65.4688720703125)"><rect x="0" y="0" width="15.70528507232666" height="2.617591142654419" rx="0" fill="rgb(203,213,255)" stroke="none" stroke-width="0"/></g><g transform="matrix(1 0 0 1 17.041475296020508 70.7051773071289)"><rect x="0" y="0" width="20.940387725830078" height="2.617591142654419" rx="0" fill="rgb(203,213,255)" stroke="none" stroke-width="0"/></g><g transform="matrix(1 0 0 1 45.834510803222656 65.4688720703125)"><rect x="0" y="0" width="2.6175484657287598" height="2.617591142654419" rx="0" fill="rgb(203,213,255)" stroke="none" stroke-width="0"/></g><g transform="matrix(1 0 0 1 51.070716857910156 65.4688720703125)"><rect x="0" y="0" width="15.70528507232666" height="2.617591142654419" rx="0" fill="rgb(203,213,255)" stroke="none" stroke-width="0"/></g><g transform="matrix(1 0 0 1 45.834510803222656 70.7051773071289)"><rect x="0" y="0" width="20.940387725830078" height="2.617591142654419" rx="0" fill="rgb(203,213,255)" stroke="none" stroke-width="0"/></g><g transform="matrix(1 0 0 1 48.452064514160156 13.11593246459961)"><rect x="0" y="0" width="2.6175484657287598" height="2.617591142654419" rx="0" fill="rgb(203,213,255)" stroke="none" stroke-width="0"/></g><g transform="matrix(1 0 0 1 53.68825912475586 13.11593246459961)"><rect x="0" y="0" width="13.087738037109375" height="2.617591142654419" rx="0" fill="rgb(203,213,255)" stroke="none" stroke-width="0"/></g><g transform="matrix(1 0 0 1 48.452064514160156 18.351112365722656)"><rect x="0" y="0" width="18.32283592224121" height="2.617591142654419" rx="0" fill="rgb(203,213,255)" stroke="none" stroke-width="0"/></g><g transform="matrix(1 0 0 1 48.452064514160156 27.51323699951172)"><rect x="0" y="0" width="2.6175484657287598" height="2.617591142654419" rx="0" fill="rgb(203,213,255)" stroke="none" stroke-width="0"/></g><g transform="matrix(1 0 0 1 53.68825912475586 27.51323699951172)"><rect x="0" y="0" width="13.087738037109375" height="2.617591142654419" rx="0" fill="rgb(203,213,255)" stroke="none" stroke-width="0"/></g><g transform="matrix(1 0 0 1 48.452064514160156 32.7484245300293)"><rect x="0" y="0" width="18.32283592224121" height="2.617591142654419" rx="0" fill="rgb(203,213,255)" stroke="none" stroke-width="0"/></g><g transform="matrix(1 0 0 1 -24.635942459106445 -21.904390335083008)"><path d="M 73.08908843994141 84.75904846191406 L 88.79665374755859 84.75904846191406 C 89.51956939697266 84.75904846191406 90.10543060302734 84.17263793945312 90.10482788085938 83.44966888427734 L 90.10482788085938 72.98604583740234 C 90.10543060302734 72.26306915283203 89.51956939697266 71.67668151855469 88.79665374755859 71.67668151855469 L 84.86862945556641 71.67668151855469 L 84.86862945556641 65.1343994140625 C 84.86923217773438 64.41139984130859 84.28337097167969 63.82501220703125 83.56040954589844 63.82501220703125 L 78.32530212402344 63.82501220703125 C 77.97799682617188 63.82470703125 77.64476013183594 63.96257019042969 77.39913940429688 64.20823669433594 C 77.15352630615234 64.45381927490234 77.01567840576172 64.78702545166016 77.01597595214844 65.1343994140625 L 77.01597595214844 69.05685424804688 L 73.09019470214844 69.05685424804688 C 72.36725616455078 69.05685424804688 71.78137969970703 69.64321899414062 71.78202056884766 70.36618041992188 L 71.78202056884766 83.45975494384766 C 71.78572082519531 84.17918395996094 72.36965179443359 84.76066589355469 73.08908843994141 84.76126098632812 M 87.48619079589844 82.15037536621094 L 84.86862945556641 82.15037536621094 L 84.86862945556641 74.29425048828125 L 87.48616027832031 74.29425048828125 L 87.48619079589844 82.15037536621094 Z M 79.63576507568359 66.44259643554688 L 82.25331115722656 66.44259643554688 L 82.25331115722656 82.15037536621094 L 79.63576507568359 82.15037536621094 L 79.63576507568359 66.44259643554688 Z M 74.40069580078125 71.67782592773438 L 77.01713562011719 71.67782592773438 L 77.01713562011719 82.14144897460938 L 74.39955902099609 82.14144897460938 L 74.40069580078125 71.67782592773438 Z" fill="rgb(203,213,255)" stroke="none" stroke-width="0"/></g><g transform="matrix(1 0 0 1 -14.377213478088379 -6.170950412750244)"><path d="M 43.19933700561523 28.45236968994141 L 58.90462112426758 28.45236968994141 C 59.62713241577148 28.45236968994141 60.21284103393555 27.86664962768555 60.21282577514648 27.14413070678711 L 60.21282577514648 19.29023742675781 C 60.21282577514648 18.56771850585938 59.62713241577148 17.98200225830078 58.90462112426758 17.98200225830078 L 43.19933700561523 17.98200225830078 C 42.47640228271484 17.98138809204102 41.8900146484375 18.56727981567383 41.8900146484375 19.29023742675781 L 41.89000701904297 27.14300537109375 C 41.88937377929688 27.86552810668945 42.47459030151367 28.45174407958984 43.19709396362305 28.45236968994141 Z M 44.50755310058594 20.59847259521484 L 57.60087966918945 20.59847259521484 L 57.60087966918945 25.83588790893555 L 44.50755310058594 25.83588790893555 L 44.50755310058594 20.59847259521484 Z" fill="rgb(203,213,255)" stroke="none" stroke-width="0"/></g><g transform="matrix(1 0 0 1 -14.377213478088379 -13.69527816772461)"><path d="M 43.19933700561523 50.37623596191406 L 58.90462112426758 50.37623596191406 C 59.62712097167969 50.37623596191406 60.21282577514648 49.79052734375 60.21282577514648 49.06800079345703 L 60.21282577514648 41.21634674072266 C 60.21345138549805 40.49340057373047 59.62756729125977 39.90699768066406 58.90462112426758 39.90699768066406 L 43.19933700561523 39.90699768066406 C 42.85199356079102 39.90670013427734 42.518798828125 40.04455947875977 42.27317810058594 40.29017639160156 C 42.02756118774414 40.53578948974609 41.88972091674805 40.86901473999023 41.8900146484375 41.21635818481445 L 41.89000701904297 49.06800079345703 C 41.8900146484375 49.79096603393555 42.47640228271484 50.37686538696289 43.19933700561523 50.37623596191406 M 44.50755310058594 42.52458572387695 L 57.60087966918945 42.52458572387695 L 57.60087966918945 47.7597770690918 L 44.50755310058594 47.7597770690918 L 44.50755310058594 42.52458572387695 Z" fill="rgb(203,213,255)" stroke="none" stroke-width="0"/></g><g transform="matrix(1 0 0 1 0.0017026289133355021 0.0019889450632035732)"><path d="M 5.258013248443604 21.59677696228027 L 5.258013248443604 39.29321670532227 C 5.258013248443604 39.59077072143555 5.359095096588135 39.87923049926758 5.544663429260254 40.11148834228516 L 10.49199390411377 46.29882431030273 L 10.49199390411377 77.24995422363281 C 10.49261283874512 77.97266387939453 11.07863998413086 78.55818939208984 11.80132675170898 78.55818939208984 L 72.00824737548828 78.55818939208984 C 72.73075103759766 78.55818939208984 73.31645965576172 77.97247314453125 73.31645965576172 77.24995422363281 L 73.31645965576172 6.573883533477783 C 73.31710052490234 5.850928783416748 72.73121643066406 5.264530658721924 72.00825500488281 5.264526844024658 L 21.59670066833496 5.264526844024658 C 18.95301055908203 1.297344446182251 14.17880821228027 -0.6852009892463684 9.502596855163574 0.2423120588064194 C 4.826390266418457 1.169822573661804 1.170269846916199 4.824498653411865 0.2408502846956253 9.500399589538574 C -0.6885680556297302 14.17630672454834 1.291980981826782 18.95141220092773 5.258013725280762 21.59677696228027 M 15.72261428833008 28.82844734191895 L 7.881156444549561 28.82844734191895 L 7.881156444549561 26.20637702941895 L 15.72708892822266 26.20637702941895 L 15.72261428833008 28.82844734191895 Z M 11.80580615997314 43.74837493896484 L 9.29344654083252 40.60369873046875 L 14.32263660430908 40.60369873046875 L 11.80580615997314 43.74837493896484 Z M 7.880037784576416 31.44492149353027 L 10.49758911132812 31.44492149353027 L 10.49758911132812 37.98946380615234 L 7.880037784576416 37.98946380615234 L 7.880037784576416 31.44492149353027 Z M 15.73380661010742 37.98946380615234 L 13.11513614654541 37.98946380615234 L 13.11513614654541 31.44492149353027 L 15.73268604278564 31.44492149353027 L 15.73380661010742 37.98946380615234 Z M 70.7022705078125 7.884357929229736 L 70.7022705078125 75.94284820556641 L 13.11513614654541 75.94284820556641 L 13.11513614654541 46.29994201660156 L 18.0626277923584 40.11463165283203 C 18.24814796447754 39.8823356628418 18.34917259216309 39.59386444091797 18.34911346435547 39.29656219482422 L 18.34911346435547 21.59677696228027 C 22.84025382995605 18.61743545532227 24.71796798706055 12.95740985870361 22.89819526672363 7.884355545043945 L 70.7022705078125 7.884357929229736 Z M 11.80692481994629 2.646937131881714 C 15.9487247467041 2.650771379470825 19.5728645324707 5.432862281799316 20.6469612121582 9.433035850524902 C 21.72106170654297 13.43320369720459 19.97796821594238 17.65652084350586 16.39518547058105 19.73458099365234 C 15.98990917205811 19.96777534484863 15.73989486694336 20.39953804016113 15.73939609527588 20.86712265014648 L 15.73939609527588 23.59102821350098 L 13.11513614654541 23.59102821350098 L 13.11513614654541 16.2810173034668 L 16.65817070007324 12.73456859588623 L 14.80943584442139 10.88356494903564 L 11.80692481994629 13.88501071929932 L 8.804401397705078 10.88356494903564 L 6.95455265045166 12.73344993591309 L 10.49758911132812 16.27654266357422 L 10.49758911132812 23.58654403686523 L 7.880037784576416 23.58654403686523 L 7.880037784576416 20.86488151550293 C 7.880230903625488 20.39740943908691 7.63055419921875 19.96547889709473 7.225369930267334 19.73234748840332 C 3.642586708068848 17.65428352355957 1.89948582649231 13.4309663772583 2.973584175109863 9.43079662322998 C 4.047684192657471 5.430626392364502 7.671832084655762 2.648534297943115 11.81363773345947 2.644699335098267 Z" fill="rgb(203,213,255)" stroke="none" stroke-width="0"/></g></g></svg>